# xmcd
#
# Track frame offsets: 
#        150
#        15733
#        28301
#        42418
#        55799
#        67376
#        81484
#        95730
#        110000
#        125133
#        135879
#        147316
#        162762
#        174532
#        184004
#        196182
#        210644
#        221577
#
# Disc length: 3128 seconds
#
# Revision: 0
# Processed by: cddbd v1.5.1PL2 Copyright (c) Steve Scherf et al.
# Submitted via: ExactAudioCopy v0.95b3
#
DISCID=140c3612
DTITLE=Various Artist - Legend's France Chanson's-2
DYEAR=2001
DGENRE=Chanson
TTITLE0=Edith Piaf - Hymne a l'amour
TTITLE1=Fernandel - Ignace
TTITLE2=Gloria Lasso - Padre don Jose
TTITLE3=Rina Ketty - J'attendrai (tornerai)
TTITLE4=Maurice Chevalier - Fleur de Paris
TTITLE5=Luis Mariano - Bambino
TTITLE6=Tino Rossi - Marinella
TTITLE7=Lucienne Delyle - Mon amant de saint jean
TTITLE8=Suzy Solidor - Lily Marlene
TTITLE9=Germain Sablon - Le shants des partisans
TTITLE10=Charles Trenet - Y'a d'la joie
TTITLE11=Ray Ventura et Ses Collegiens - Ca vaut mieux que d'attraper 
TTITLE11=la scarlatine
TTITLE12=Albert Prejean - Dede de Montmartre
TTITLE13=Les compagnons de la chanson - Le marchand de bonheur
TTITLE14=Anni Cordy - Six Roses
TTITLE15=Josephine Baker - J'ai deux amours
TTITLE16=Bourvil - C'est une gamine charmante
TTITLE17=George Guetary - La route fleurie
EXTD=
EXTT0=
EXTT1=
EXTT2=
EXTT3=
EXTT4=
EXTT5=
EXTT6=
EXTT7=
EXTT8=
EXTT9=
EXTT10=
EXTT11=
EXTT12=
EXTT13=
EXTT14=
EXTT15=
EXTT16=
EXTT17=
PLAYORDER=
